<?xml version="1.0" encoding="utf-8"?>
<!-- Generator: Adobe Illustrator 20.0.0, SVG Export Plug-In . SVG Version: 6.00 Build 0)  -->
<svg version="1.1" id="Layer_1" xmlns="http://www.w3.org/2000/svg" xmlns:xlink="http://www.w3.org/1999/xlink" x="0px" y="0px"
	 viewBox="0 0 54.2 71" style="enable-background:new 0 0 54.2 71;" xml:space="preserve">
<style type="text/css">
	.st0{fill:#4A4A4A;}
</style>
<path class="st0" d="M52.6,5l-3.4-3.5c-0.4-0.5-1-0.9-1.7-0.9H2.8c-1.2,0-2.1,1-2.1,2.1v61.1c0,0.7,0.4,1.4,1,1.8L5,69.1
	c0.4,0.5,1,0.8,1.6,0.8h44.8c1.2,0,2.1-1,2.1-2.1V6.7C53.5,6,53.2,5.4,52.6,5z M48.3,62.7c0,1.1-0.9,2-2,2H4.1c-1.1,0-2-0.9-2-2V3.9
	c0-1.1,0.9-2,2-2h42.3c1.1,0,2,0.9,2,2V62.7z"/>
</svg>
